<svg width="605" height="340" xmlns="http://www.w3.org/2000/svg" xmlns:xlink="http://www.w3.org/1999/xlink" xml:space="preserve" overflow="hidden"><defs><clipPath id="clip0"><rect x="0" y="0" width="605" height="340"/></clipPath></defs><g clip-path="url(#clip0)"><path d="M0 0 604.444 0 604.444 340 0 340Z" fill="#FFFFFF" transform="scale(1.00092 1)"/><path d="M68.3778 243.667 77.0667 242.156 85.3778 244.044 94.0667 244.044 102.756 244.044 111.444 243.667 120.133 243.289 128.822 239.889 137.133 229.689 145.822 226.289 154.511 229.311 163.2 238.756 171.889 236.489 180.578 230.067 188.889 236.489 197.578 241.778 206.267 243.289 214.956 240.267 223.644 236.489 232.333 234.978 240.644 207.022 249.333 212.311 258.022 147.711 266.711 95.9556 275.4 60.8222 284.089 137.889 292.4 205.133 301.089 194.933 309.778 167.733 318.467 209.289 327.156 217.978 335.844 168.867 344.156 224.022 352.844 220.622 361.533 233.844 370.222 234.222 378.911 239.511 387.6 242.911 395.911 243.667 404.6 244.044 413.289 244.422 421.978 244.044 430.667 243.667 439.356 242.911 447.667 241.778 456.356 241.022 465.044 243.289 473.733 244.044 482.422 244.422 491.111 244.422 499.422 244.422 508.111 244.422 516.8 244.422 516.8 244.422 508.111 244.422 499.422 244.422 491.111 244.422 482.422 244.422 473.733 244.422 465.044 244.422 456.356 244.422 447.667 244.422 439.356 244.422 430.667 244.422 421.978 244.422 413.289 244.422 404.6 244.422 395.911 244.422 387.6 244.422 378.911 244.422 370.222 244.422 361.533 244.422 352.844 244.422 344.156 244.422 335.844 244.422 327.156 244.422 318.467 244.422 309.778 244.422 301.089 244.422 292.4 244.422 284.089 244.422 275.4 244.422 266.711 244.422 258.022 244.422 249.333 244.422 240.644 244.422 232.333 244.422 223.644 244.422 214.956 244.422 206.267 244.422 197.578 244.422 188.889 244.422 180.578 244.422 171.889 244.422 163.2 244.422 154.511 244.422 145.822 244.422 137.133 244.422 128.822 244.422 120.133 244.422 111.444 244.422 102.756 244.422 94.0667 244.422 85.3778 244.422 77.0667 244.422 68.3778 244.422Z" fill="#4CA2B9" transform="scale(1.00092 1)"/><path d="M37.9667 51.1889 564.211 51.1889" stroke="#D9D9D9" stroke-width="0.472222" stroke-linejoin="round" stroke-miterlimit="10" fill="none" fill-rule="evenodd" transform="scale(1.00092 1)"/><path d="M37.9667 48.5444 37.9667 51.1889M46.6556 48.5444 46.6556 51.1889M55.3444 48.5444 55.3444 51.1889M64.0333 48.5444 64.0333 51.1889M72.7222 48.5444 72.7222 51.1889M81.0333 48.5444 81.0333 51.1889M89.7222 48.5444 89.7222 51.1889M98.4111 48.5444 98.4111 51.1889M107.1 48.5444 107.1 51.1889M115.789 48.5444 115.789 51.1889M124.478 48.5444 124.478 51.1889M132.789 48.5444 132.789 51.1889M141.478 48.5444 141.478 51.1889M150.167 48.5444 150.167 51.1889M158.856 48.5444 158.856 51.1889M167.544 48.5444 167.544 51.1889M176.233 48.5444 176.233 51.1889M184.544 48.5444 184.544 51.1889M193.233 48.5444 193.233 51.1889M201.922 48.5444 201.922 51.1889M210.611 48.5444 210.611 51.1889M219.3 48.5444 219.3 51.1889M227.989 48.5444 227.989 51.1889M236.3 48.5444 236.3 51.1889M244.989 48.5444 244.989 51.1889M253.678 48.5444 253.678 51.1889M262.367 48.5444 262.367 51.1889M271.056 48.5444 271.056 51.1889M279.744 48.5444 279.744 51.1889M288.056 48.5444 288.056 51.1889M296.744 48.5444 296.744 51.1889M305.433 48.5444 305.433 51.1889M314.122 48.5444 314.122 51.1889M322.811 48.5444 322.811 51.1889M331.5 48.5444 331.5 51.1889M339.811 48.5444 339.811 51.1889M348.5 48.5444 348.5 51.1889M357.189 48.5444 357.189 51.1889M365.878 48.5444 365.878 51.1889M374.567 48.5444 374.567 51.1889M383.256 48.5444 383.256 51.1889M391.567 48.5444 391.567 51.1889M400.256 48.5444 400.256 51.1889M408.944 48.5444 408.944 51.1889M417.633 48.5444 417.633 51.1889M426.322 48.5444 426.322 51.1889M435.011 48.5444 435.011 51.1889M443.7 48.5444 443.7 51.1889M452.011 48.5444 452.011 51.1889M460.7 48.5444 460.7 51.1889M469.389 48.5444 469.389 51.1889M478.078 48.5444 478.078 51.1889M486.767 48.5444 486.767 51.1889M495.456 48.5444 495.456 51.1889M503.767 48.5444 503.767 51.1889M512.456 48.5444 512.456 51.1889M521.144 48.5444 521.144 51.1889M529.833 48.5444 529.833 51.1889M538.522 48.5444 538.522 51.1889M547.211 48.5444 547.211 51.1889M555.522 48.5444 555.522 51.1889M564.211 48.5444 564.211 51.1889" stroke="#D9D9D9" stroke-width="0.472222" stroke-linejoin="round" stroke-miterlimit="10" fill="none" transform="scale(1.00092 1)"/><path d="M0 0 4.95773e-05 193.422" stroke="#D9D9D9" stroke-width="0.472222" stroke-linejoin="round" stroke-miterlimit="10" fill="none" fill-rule="evenodd" transform="matrix(1.00092 0 0 -1 564.73 244.611)"/><path d="M564.211 244.611 566.478 244.611M564.211 224.967 566.478 224.967M564.211 205.7 566.478 205.7M564.211 186.433 566.478 186.433M564.211 167.167 566.478 167.167M564.211 147.9 566.478 147.9M564.211 128.256 566.478 128.256M564.211 108.989 566.478 108.989M564.211 89.7222 566.478 89.7222M564.211 70.4556 566.478 70.4556M564.211 51.1889 566.478 51.1889" stroke="#D9D9D9" stroke-width="0.472222" stroke-linejoin="round" stroke-miterlimit="10" fill="none" transform="scale(1.00092 1)"/><path d="M0 0 4.95773e-05 193.422" stroke="#D9D9D9" stroke-width="0.472222" stroke-linejoin="round" stroke-miterlimit="10" fill="none" fill-rule="evenodd" transform="matrix(1.00092 0 0 -1 38.0016 244.611)"/><path d="M35.7 244.611 37.9667 244.611M35.7 224.967 37.9667 224.967M35.7 205.7 37.9667 205.7M35.7 186.433 37.9667 186.433M35.7 167.167 37.9667 167.167M35.7 147.9 37.9667 147.9M35.7 128.256 37.9667 128.256M35.7 108.989 37.9667 108.989M35.7 89.7222 37.9667 89.7222M35.7 70.4556 37.9667 70.4556M35.7 51.1889 37.9667 51.1889" stroke="#D9D9D9" stroke-width="0.472222" stroke-linejoin="round" stroke-miterlimit="10" fill="none" transform="scale(1.00092 1)"/><path d="M37.9667 244.611 564.211 244.611" stroke="#D9D9D9" stroke-width="0.472222" stroke-linejoin="round" stroke-miterlimit="10" fill="none" fill-rule="evenodd" transform="scale(1.00092 1)"/><path d="M37.9667 244.611 37.9667 246.878M46.6556 244.611 46.6556 246.878M55.3444 244.611 55.3444 246.878M64.0333 244.611 64.0333 246.878M72.7222 244.611 72.7222 246.878M81.0333 244.611 81.0333 246.878M89.7222 244.611 89.7222 246.878M98.4111 244.611 98.4111 246.878M107.1 244.611 107.1 246.878M115.789 244.611 115.789 246.878M124.478 244.611 124.478 246.878M132.789 244.611 132.789 246.878M141.478 244.611 141.478 246.878M150.167 244.611 150.167 246.878M158.856 244.611 158.856 246.878M167.544 244.611 167.544 246.878M176.233 244.611 176.233 246.878M184.544 244.611 184.544 246.878M193.233 244.611 193.233 246.878M201.922 244.611 201.922 246.878M210.611 244.611 210.611 246.878M219.3 244.611 219.3 246.878M227.989 244.611 227.989 246.878M236.3 244.611 236.3 246.878M244.989 244.611 244.989 246.878M253.678 244.611 253.678 246.878M262.367 244.611 262.367 246.878M271.056 244.611 271.056 246.878M279.744 244.611 279.744 246.878M288.056 244.611 288.056 246.878M296.744 244.611 296.744 246.878M305.433 244.611 305.433 246.878M314.122 244.611 314.122 246.878M322.811 244.611 322.811 246.878M331.5 244.611 331.5 246.878M339.811 244.611 339.811 246.878M348.5 244.611 348.5 246.878M357.189 244.611 357.189 246.878M365.878 244.611 365.878 246.878M374.567 244.611 374.567 246.878M383.256 244.611 383.256 246.878M391.567 244.611 391.567 246.878M400.256 244.611 400.256 246.878M408.944 244.611 408.944 246.878M417.633 244.611 417.633 246.878M426.322 244.611 426.322 246.878M435.011 244.611 435.011 246.878M443.7 244.611 443.7 246.878M452.011 244.611 452.011 246.878M460.7 244.611 460.7 246.878M469.389 244.611 469.389 246.878M478.078 244.611 478.078 246.878M486.767 244.611 486.767 246.878M495.456 244.611 495.456 246.878M503.767 244.611 503.767 246.878M512.456 244.611 512.456 246.878M521.144 244.611 521.144 246.878M529.833 244.611 529.833 246.878M538.522 244.611 538.522 246.878M547.211 244.611 547.211 246.878M555.522 244.611 555.522 246.878M564.211 244.611 564.211 246.878" stroke="#D9D9D9" stroke-width="0.472222" stroke-linejoin="round" stroke-miterlimit="10" fill="none" transform="scale(1.00092 1)"/><path d="M68.3778 127.689 77.0667 143.933 85.3778 135.622 94.0667 135.244 102.756 97.4667 111.444 120.133 120.133 122.4 128.822 85.7556 137.133 100.489 145.822 120.889 154.511 108.8 163.2 120.133 171.889 118.622 180.578 128.444 188.889 114.467 197.578 128.444 206.267 136.378 214.956 142.8 223.644 139.4 232.333 142.044 240.644 139.022 249.333 150.356 258.022 142.8 266.711 139.4 275.4 148.467 284.089 151.489 292.4 151.111 301.089 156.4 309.778 154.511 318.467 157.533 327.156 154.133 335.844 154.889 344.156 160.933 352.844 160.178M404.6 161.311 413.289 171.511 421.978 171.889 430.667 177.556 439.356 173.778 447.667 179.822 456.356 181.333 465.044 181.333 473.733 182.467 482.422 187.378 491.111 185.867 499.422 185.489 508.111 184.356 516.8 191.156 525.489 191.156 534.178 191.533 542.867 192.289 551.178 191.533 559.867 192.667" stroke="#B02F2C" stroke-width="1.41667" stroke-linecap="square" stroke-linejoin="round" stroke-miterlimit="10" fill="none" transform="scale(1.00092 1)"/><path d="M43.7229 60.7633C43.7229 61.4935 43.1309 62.0855 42.4006 62.0855 41.6704 62.0855 41.0784 61.4935 41.0784 60.7633 41.0784 60.033 41.6704 59.4411 42.4006 59.4411 43.1309 59.4411 43.7229 60.033 43.7229 60.7633Z" stroke="#B02F2C" stroke-width="0.472222" stroke-linejoin="round" stroke-miterlimit="10" fill="#B02F2C" transform="scale(1.00092 1)"/><path d="M69.4118 127.63C69.4118 128.36 68.8198 128.952 68.0895 128.952 67.3593 128.952 66.7673 128.36 66.7673 127.63 66.7673 126.9 67.3593 126.308 68.0895 126.308 68.8198 126.308 69.4118 126.9 69.4118 127.63Z" stroke="#B02F2C" stroke-width="0.472222" stroke-linejoin="round" stroke-miterlimit="10" fill="#B02F2C" transform="scale(1.00092 1)"/><path d="M78.1006 143.497C78.1006 144.227 77.5087 144.819 76.7784 144.819 76.0482 144.819 75.4562 144.227 75.4562 143.497 75.4562 142.766 76.0482 142.174 76.7784 142.174 77.5087 142.174 78.1006 142.766 78.1006 143.497Z" stroke="#B02F2C" stroke-width="0.472222" stroke-linejoin="round" stroke-miterlimit="10" fill="#B02F2C" transform="scale(1.00092 1)"/><path d="M86.7895 135.563C86.7895 136.294 86.1976 136.886 85.4673 136.886 84.7371 136.886 84.1451 136.294 84.1451 135.563 84.1451 134.833 84.7371 134.241 85.4673 134.241 86.1976 134.241 86.7895 134.833 86.7895 135.563Z" stroke="#B02F2C" stroke-width="0.472222" stroke-linejoin="round" stroke-miterlimit="10" fill="#B02F2C" transform="scale(1.00092 1)"/><path d="M95.4784 134.808C95.4784 135.538 94.8864 136.13 94.1562 136.13 93.426 136.13 92.834 135.538 92.834 134.808 92.834 134.077 93.426 133.486 94.1562 133.486 94.8864 133.486 95.4784 134.077 95.4784 134.808Z" stroke="#B02F2C" stroke-width="0.472222" stroke-linejoin="round" stroke-miterlimit="10" fill="#B02F2C" transform="scale(1.00092 1)"/><path d="M104.167 97.4077C104.167 98.138 103.575 98.73 102.845 98.73 102.115 98.73 101.523 98.138 101.523 97.4077 101.523 96.6775 102.115 96.0855 102.845 96.0855 103.575 96.0855 104.167 96.6775 104.167 97.4077Z" stroke="#B02F2C" stroke-width="0.472222" stroke-linejoin="round" stroke-miterlimit="10" fill="#B02F2C" transform="scale(1.00092 1)"/><path d="M112.478 120.074C112.478 120.805 111.886 121.397 111.156 121.397 110.426 121.397 109.834 120.805 109.834 120.074 109.834 119.344 110.426 118.752 111.156 118.752 111.886 118.752 112.478 119.344 112.478 120.074Z" stroke="#B02F2C" stroke-width="0.472222" stroke-linejoin="round" stroke-miterlimit="10" fill="#B02F2C" transform="scale(1.00092 1)"/><path d="M121.167 122.341C121.167 123.071 120.575 123.663 119.845 123.663 119.115 123.663 118.523 123.071 118.523 122.341 118.523 121.611 119.115 121.019 119.845 121.019 120.575 121.019 121.167 121.611 121.167 122.341Z" stroke="#B02F2C" stroke-width="0.472222" stroke-linejoin="round" stroke-miterlimit="10" fill="#B02F2C" transform="scale(1.00092 1)"/><path d="M129.856 85.3188C129.856 86.0491 129.264 86.6411 128.534 86.6411 127.804 86.6411 127.212 86.0491 127.212 85.3188 127.212 84.5886 127.804 83.9966 128.534 83.9966 129.264 83.9966 129.856 84.5886 129.856 85.3188Z" stroke="#B02F2C" stroke-width="0.472222" stroke-linejoin="round" stroke-miterlimit="10" fill="#B02F2C" transform="scale(1.00092 1)"/><path d="M138.545 100.052C138.545 100.782 137.953 101.374 137.223 101.374 136.493 101.374 135.901 100.782 135.901 100.052 135.901 99.3219 136.493 98.73 137.223 98.73 137.953 98.73 138.545 99.3219 138.545 100.052Z" stroke="#B02F2C" stroke-width="0.472222" stroke-linejoin="round" stroke-miterlimit="10" fill="#B02F2C" transform="scale(1.00092 1)"/><path d="M147.234 120.452C147.234 121.182 146.642 121.774 145.912 121.774 145.182 121.774 144.59 121.182 144.59 120.452 144.59 119.722 145.182 119.13 145.912 119.13 146.642 119.13 147.234 119.722 147.234 120.452Z" stroke="#B02F2C" stroke-width="0.472222" stroke-linejoin="round" stroke-miterlimit="10" fill="#B02F2C" transform="scale(1.00092 1)"/><path d="M155.923 108.363C155.923 109.094 155.331 109.686 154.601 109.686 153.87 109.686 153.278 109.094 153.278 108.363 153.278 107.633 153.87 107.041 154.601 107.041 155.331 107.041 155.923 107.633 155.923 108.363Z" stroke="#B02F2C" stroke-width="0.472222" stroke-linejoin="round" stroke-miterlimit="10" fill="#B02F2C" transform="scale(1.00092 1)"/><path d="M164.234 119.697C164.234 120.427 163.642 121.019 162.912 121.019 162.182 121.019 161.59 120.427 161.59 119.697 161.59 118.966 162.182 118.374 162.912 118.374 163.642 118.374 164.234 118.966 164.234 119.697Z" stroke="#B02F2C" stroke-width="0.472222" stroke-linejoin="round" stroke-miterlimit="10" fill="#B02F2C" transform="scale(1.00092 1)"/><path d="M172.923 118.186C172.923 118.916 172.331 119.508 171.601 119.508 170.87 119.508 170.278 118.916 170.278 118.186 170.278 117.455 170.87 116.863 171.601 116.863 172.331 116.863 172.923 117.455 172.923 118.186Z" stroke="#B02F2C" stroke-width="0.472222" stroke-linejoin="round" stroke-miterlimit="10" fill="#B02F2C" transform="scale(1.00092 1)"/><path d="M181.612 128.386C181.612 129.116 181.02 129.708 180.29 129.708 179.559 129.708 178.967 129.116 178.967 128.386 178.967 127.655 179.559 127.063 180.29 127.063 181.02 127.063 181.612 127.655 181.612 128.386Z" stroke="#B02F2C" stroke-width="0.472222" stroke-linejoin="round" stroke-miterlimit="10" fill="#B02F2C" transform="scale(1.00092 1)"/><path d="M190.301 114.03C190.301 114.76 189.709 115.352 188.978 115.352 188.248 115.352 187.656 114.76 187.656 114.03 187.656 113.3 188.248 112.708 188.978 112.708 189.709 112.708 190.301 113.3 190.301 114.03Z" stroke="#B02F2C" stroke-width="0.472222" stroke-linejoin="round" stroke-miterlimit="10" fill="#B02F2C" transform="scale(1.00092 1)"/><path d="M198.99 128.008C198.99 128.738 198.398 129.33 197.667 129.33 196.937 129.33 196.345 128.738 196.345 128.008 196.345 127.277 196.937 126.686 197.667 126.686 198.398 126.686 198.99 127.277 198.99 128.008Z" stroke="#B02F2C" stroke-width="0.472222" stroke-linejoin="round" stroke-miterlimit="10" fill="#B02F2C" transform="scale(1.00092 1)"/><path d="M207.678 136.319C207.678 137.049 207.086 137.641 206.356 137.641 205.626 137.641 205.034 137.049 205.034 136.319 205.034 135.589 205.626 134.997 206.356 134.997 207.086 134.997 207.678 135.589 207.678 136.319Z" stroke="#B02F2C" stroke-width="0.472222" stroke-linejoin="round" stroke-miterlimit="10" fill="#B02F2C" transform="scale(1.00092 1)"/><path d="M215.99 142.741C215.99 143.471 215.398 144.063 214.667 144.063 213.937 144.063 213.345 143.471 213.345 142.741 213.345 142.011 213.937 141.419 214.667 141.419 215.398 141.419 215.99 142.011 215.99 142.741Z" stroke="#B02F2C" stroke-width="0.472222" stroke-linejoin="round" stroke-miterlimit="10" fill="#B02F2C" transform="scale(1.00092 1)"/><path d="M224.678 138.963C224.678 139.694 224.086 140.286 223.356 140.286 222.626 140.286 222.034 139.694 222.034 138.963 222.034 138.233 222.626 137.641 223.356 137.641 224.086 137.641 224.678 138.233 224.678 138.963Z" stroke="#B02F2C" stroke-width="0.472222" stroke-linejoin="round" stroke-miterlimit="10" fill="#B02F2C" transform="scale(1.00092 1)"/><path d="M233.367 141.608C233.367 142.338 232.775 142.93 232.045 142.93 231.315 142.93 230.723 142.338 230.723 141.608 230.723 140.878 231.315 140.286 232.045 140.286 232.775 140.286 233.367 140.878 233.367 141.608Z" stroke="#B02F2C" stroke-width="0.472222" stroke-linejoin="round" stroke-miterlimit="10" fill="#B02F2C" transform="scale(1.00092 1)"/><path d="M242.056 138.963C242.056 139.694 241.464 140.286 240.734 140.286 240.004 140.286 239.412 139.694 239.412 138.963 239.412 138.233 240.004 137.641 240.734 137.641 241.464 137.641 242.056 138.233 242.056 138.963Z" stroke="#B02F2C" stroke-width="0.472222" stroke-linejoin="round" stroke-miterlimit="10" fill="#B02F2C" transform="scale(1.00092 1)"/><path d="M250.745 150.297C250.745 151.027 250.153 151.619 249.423 151.619 248.693 151.619 248.101 151.027 248.101 150.297 248.101 149.566 248.693 148.974 249.423 148.974 250.153 148.974 250.745 149.566 250.745 150.297Z" stroke="#B02F2C" stroke-width="0.472222" stroke-linejoin="round" stroke-miterlimit="10" fill="#B02F2C" transform="scale(1.00092 1)"/><path d="M259.434 142.363C259.434 143.094 258.842 143.686 258.112 143.686 257.382 143.686 256.79 143.094 256.79 142.363 256.79 141.633 257.382 141.041 258.112 141.041 258.842 141.041 259.434 141.633 259.434 142.363Z" stroke="#B02F2C" stroke-width="0.472222" stroke-linejoin="round" stroke-miterlimit="10" fill="#B02F2C" transform="scale(1.00092 1)"/><path d="M267.745 138.963C267.745 139.694 267.153 140.286 266.423 140.286 265.693 140.286 265.101 139.694 265.101 138.963 265.101 138.233 265.693 137.641 266.423 137.641 267.153 137.641 267.745 138.233 267.745 138.963Z" stroke="#B02F2C" stroke-width="0.472222" stroke-linejoin="round" stroke-miterlimit="10" fill="#B02F2C" transform="scale(1.00092 1)"/><path d="M276.434 148.408C276.434 149.138 275.842 149.73 275.112 149.73 274.382 149.73 273.79 149.138 273.79 148.408 273.79 147.677 274.382 147.086 275.112 147.086 275.842 147.086 276.434 147.677 276.434 148.408Z" stroke="#B02F2C" stroke-width="0.472222" stroke-linejoin="round" stroke-miterlimit="10" fill="#B02F2C" transform="scale(1.00092 1)"/><path d="M285.123 151.052C285.123 151.782 284.531 152.374 283.801 152.374 283.07 152.374 282.478 151.782 282.478 151.052 282.478 150.322 283.07 149.73 283.801 149.73 284.531 149.73 285.123 150.322 285.123 151.052Z" stroke="#B02F2C" stroke-width="0.472222" stroke-linejoin="round" stroke-miterlimit="10" fill="#B02F2C" transform="scale(1.00092 1)"/><path d="M293.812 151.052C293.812 151.782 293.22 152.374 292.49 152.374 291.759 152.374 291.167 151.782 291.167 151.052 291.167 150.322 291.759 149.73 292.49 149.73 293.22 149.73 293.812 150.322 293.812 151.052Z" stroke="#B02F2C" stroke-width="0.472222" stroke-linejoin="round" stroke-miterlimit="10" fill="#B02F2C" transform="scale(1.00092 1)"/><path d="M302.501 156.341C302.501 157.071 301.909 157.663 301.178 157.663 300.448 157.663 299.856 157.071 299.856 156.341 299.856 155.611 300.448 155.019 301.178 155.019 301.909 155.019 302.501 155.611 302.501 156.341Z" stroke="#B02F2C" stroke-width="0.472222" stroke-linejoin="round" stroke-miterlimit="10" fill="#B02F2C" transform="scale(1.00092 1)"/><path d="M311.19 154.452C311.19 155.182 310.598 155.774 309.867 155.774 309.137 155.774 308.545 155.182 308.545 154.452 308.545 153.722 309.137 153.13 309.867 153.13 310.598 153.13 311.19 153.722 311.19 154.452Z" stroke="#B02F2C" stroke-width="0.472222" stroke-linejoin="round" stroke-miterlimit="10" fill="#B02F2C" transform="scale(1.00092 1)"/><path d="M319.501 157.474C319.501 158.205 318.909 158.797 318.178 158.797 317.448 158.797 316.856 158.205 316.856 157.474 316.856 156.744 317.448 156.152 318.178 156.152 318.909 156.152 319.501 156.744 319.501 157.474Z" stroke="#B02F2C" stroke-width="0.472222" stroke-linejoin="round" stroke-miterlimit="10" fill="#B02F2C" transform="scale(1.00092 1)"/><path d="M328.19 153.697C328.19 154.427 327.598 155.019 326.867 155.019 326.137 155.019 325.545 154.427 325.545 153.697 325.545 152.966 326.137 152.374 326.867 152.374 327.598 152.374 328.19 152.966 328.19 153.697Z" stroke="#B02F2C" stroke-width="0.472222" stroke-linejoin="round" stroke-miterlimit="10" fill="#B02F2C" transform="scale(1.00092 1)"/><path d="M336.878 154.83C336.878 155.56 336.286 156.152 335.556 156.152 334.826 156.152 334.234 155.56 334.234 154.83 334.234 154.1 334.826 153.508 335.556 153.508 336.286 153.508 336.878 154.1 336.878 154.83Z" stroke="#B02F2C" stroke-width="0.472222" stroke-linejoin="round" stroke-miterlimit="10" fill="#B02F2C" transform="scale(1.00092 1)"/><path d="M345.567 160.497C345.567 161.227 344.975 161.819 344.245 161.819 343.515 161.819 342.923 161.227 342.923 160.497 342.923 159.766 343.515 159.174 344.245 159.174 344.975 159.174 345.567 159.766 345.567 160.497Z" stroke="#B02F2C" stroke-width="0.472222" stroke-linejoin="round" stroke-miterlimit="10" fill="#B02F2C" transform="scale(1.00092 1)"/><path d="M354.256 159.741C354.256 160.471 353.664 161.063 352.934 161.063 352.204 161.063 351.612 160.471 351.612 159.741 351.612 159.011 352.204 158.419 352.934 158.419 353.664 158.419 354.256 159.011 354.256 159.741Z" stroke="#B02F2C" stroke-width="0.472222" stroke-linejoin="round" stroke-miterlimit="10" fill="#B02F2C" transform="scale(1.00092 1)"/><path d="M406.013 160.874C406.013 161.605 405.42 162.197 404.691 162.197 403.958 162.197 403.368 161.605 403.368 160.874 403.368 160.144 403.958 159.552 404.691 159.552 405.42 159.552 406.013 160.144 406.013 160.874Z" stroke="#B02F2C" stroke-width="0.472222" stroke-linejoin="round" stroke-miterlimit="10" fill="#B02F2C" transform="scale(1.00092 1)"/><path d="M414.702 171.452C414.702 172.182 414.109 172.774 413.38 172.774 412.647 172.774 412.057 172.182 412.057 171.452 412.057 170.722 412.647 170.13 413.38 170.13 414.109 170.13 414.702 170.722 414.702 171.452Z" stroke="#B02F2C" stroke-width="0.472222" stroke-linejoin="round" stroke-miterlimit="10" fill="#B02F2C" transform="scale(1.00092 1)"/><path d="M423.013 171.452C423.013 172.182 422.42 172.774 421.691 172.774 420.958 172.774 420.368 172.182 420.368 171.452 420.368 170.722 420.958 170.13 421.691 170.13 422.42 170.13 423.013 170.722 423.013 171.452Z" stroke="#B02F2C" stroke-width="0.472222" stroke-linejoin="round" stroke-miterlimit="10" fill="#B02F2C" transform="scale(1.00092 1)"/><path d="M431.702 177.119C431.702 177.849 431.109 178.441 430.38 178.441 429.647 178.441 429.057 177.849 429.057 177.119 429.057 176.389 429.647 175.797 430.38 175.797 431.109 175.797 431.702 176.389 431.702 177.119Z" stroke="#B02F2C" stroke-width="0.472222" stroke-linejoin="round" stroke-miterlimit="10" fill="#B02F2C" transform="scale(1.00092 1)"/><path d="M440.391 173.341C440.391 174.071 439.798 174.663 439.068 174.663 438.336 174.663 437.746 174.071 437.746 173.341 437.746 172.611 438.336 172.019 439.068 172.019 439.798 172.019 440.391 172.611 440.391 173.341Z" stroke="#B02F2C" stroke-width="0.472222" stroke-linejoin="round" stroke-miterlimit="10" fill="#B02F2C" transform="scale(1.00092 1)"/><path d="M449.08 179.763C449.08 180.494 448.486 181.086 447.757 181.086 447.024 181.086 446.435 180.494 446.435 179.763 446.435 179.033 447.024 178.441 447.757 178.441 448.486 178.441 449.08 179.033 449.08 179.763Z" stroke="#B02F2C" stroke-width="0.472222" stroke-linejoin="round" stroke-miterlimit="10" fill="#B02F2C" transform="scale(1.00092 1)"/><path d="M457.768 180.897C457.768 181.627 457.175 182.219 456.446 182.219 455.713 182.219 455.124 181.627 455.124 180.897 455.124 180.166 455.713 179.574 456.446 179.574 457.175 179.574 457.768 180.166 457.768 180.897Z" stroke="#B02F2C" stroke-width="0.472222" stroke-linejoin="round" stroke-miterlimit="10" fill="#B02F2C" transform="scale(1.00092 1)"/><path d="M466.457 181.274C466.457 182.005 465.864 182.597 465.135 182.597 464.402 182.597 463.813 182.005 463.813 181.274 463.813 180.544 464.402 179.952 465.135 179.952 465.864 179.952 466.457 180.544 466.457 181.274Z" stroke="#B02F2C" stroke-width="0.472222" stroke-linejoin="round" stroke-miterlimit="10" fill="#B02F2C" transform="scale(1.00092 1)"/><path d="M474.768 182.03C474.768 182.76 474.175 183.352 473.446 183.352 472.713 183.352 472.124 182.76 472.124 182.03 472.124 181.3 472.713 180.708 473.446 180.708 474.175 180.708 474.768 181.3 474.768 182.03Z" stroke="#B02F2C" stroke-width="0.472222" stroke-linejoin="round" stroke-miterlimit="10" fill="#B02F2C" transform="scale(1.00092 1)"/><path d="M483.457 186.941C483.457 187.671 482.864 188.263 482.135 188.263 481.402 188.263 480.813 187.671 480.813 186.941 480.813 186.211 481.402 185.619 482.135 185.619 482.864 185.619 483.457 186.211 483.457 186.941Z" stroke="#B02F2C" stroke-width="0.472222" stroke-linejoin="round" stroke-miterlimit="10" fill="#B02F2C" transform="scale(1.00092 1)"/><path d="M492.146 185.808C492.146 186.538 491.553 187.13 490.824 187.13 490.091 187.13 489.502 186.538 489.502 185.808 489.502 185.077 490.091 184.486 490.824 184.486 491.553 184.486 492.146 185.077 492.146 185.808Z" stroke="#B02F2C" stroke-width="0.472222" stroke-linejoin="round" stroke-miterlimit="10" fill="#B02F2C" transform="scale(1.00092 1)"/><path d="M500.835 185.43C500.835 186.16 500.242 186.752 499.513 186.752 498.78 186.752 498.191 186.16 498.191 185.43 498.191 184.7 498.78 184.108 499.513 184.108 500.242 184.108 500.835 184.7 500.835 185.43Z" stroke="#B02F2C" stroke-width="0.472222" stroke-linejoin="round" stroke-miterlimit="10" fill="#B02F2C" transform="scale(1.00092 1)"/><path d="M509.524 184.297C509.524 185.027 508.931 185.619 508.202 185.619 507.469 185.619 506.88 185.027 506.88 184.297 506.88 183.566 507.469 182.974 508.202 182.974 508.931 182.974 509.524 183.566 509.524 184.297Z" stroke="#B02F2C" stroke-width="0.472222" stroke-linejoin="round" stroke-miterlimit="10" fill="#B02F2C" transform="scale(1.00092 1)"/><path d="M518.213 190.719C518.213 191.449 517.62 192.041 516.891 192.041 516.158 192.041 515.568 191.449 515.568 190.719 515.568 189.989 516.158 189.397 516.891 189.397 517.62 189.397 518.213 189.989 518.213 190.719Z" stroke="#B02F2C" stroke-width="0.472222" stroke-linejoin="round" stroke-miterlimit="10" fill="#B02F2C" transform="scale(1.00092 1)"/><path d="M526.524 191.097C526.524 191.827 525.931 192.419 525.202 192.419 524.469 192.419 523.88 191.827 523.88 191.097 523.88 190.366 524.469 189.774 525.202 189.774 525.931 189.774 526.524 190.366 526.524 191.097Z" stroke="#B02F2C" stroke-width="0.472222" stroke-linejoin="round" stroke-miterlimit="10" fill="#B02F2C" transform="scale(1.00092 1)"/><path d="M535.213 191.097C535.213 191.827 534.62 192.419 533.891 192.419 533.158 192.419 532.568 191.827 532.568 191.097 532.568 190.366 533.158 189.774 533.891 189.774 534.62 189.774 535.213 190.366 535.213 191.097Z" stroke="#B02F2C" stroke-width="0.472222" stroke-linejoin="round" stroke-miterlimit="10" fill="#B02F2C" transform="scale(1.00092 1)"/><path d="M543.902 191.852C543.902 192.582 543.309 193.174 542.58 193.174 541.847 193.174 541.257 192.582 541.257 191.852 541.257 191.122 541.847 190.53 542.58 190.53 543.309 190.53 543.902 191.122 543.902 191.852Z" stroke="#B02F2C" stroke-width="0.472222" stroke-linejoin="round" stroke-miterlimit="10" fill="#B02F2C" transform="scale(1.00092 1)"/><path d="M552.591 191.097C552.591 191.827 551.998 192.419 551.268 192.419 550.536 192.419 549.946 191.827 549.946 191.097 549.946 190.366 550.536 189.774 551.268 189.774 551.998 189.774 552.591 190.366 552.591 191.097Z" stroke="#B02F2C" stroke-width="0.472222" stroke-linejoin="round" stroke-miterlimit="10" fill="#B02F2C" transform="scale(1.00092 1)"/><path d="M561.28 192.608C561.28 193.338 560.686 193.93 559.957 193.93 559.224 193.93 558.635 193.338 558.635 192.608 558.635 191.878 559.224 191.286 559.957 191.286 560.686 191.286 561.28 191.878 561.28 192.608Z" stroke="#B02F2C" stroke-width="0.472222" stroke-linejoin="round" stroke-miterlimit="10" fill="#B02F2C" transform="scale(1.00092 1)"/><text font-family="Calibri,Calibri_MSFontService,sans-serif" font-weight="400" font-size="20" transform="matrix(2.31535e-17 -0.377778 0.378125 2.31322e-17 45.009 46)">Dec</text><text font-family="Calibri,Calibri_MSFontService,sans-serif" font-weight="400" font-size="20" transform="matrix(2.31535e-17 -0.377778 0.378125 2.31322e-17 53.6435 46)">Jan </text><text font-family="Calibri,Calibri_MSFontService,sans-serif" font-weight="400" font-size="20" transform="matrix(2.31535e-17 -0.377778 0.378125 2.31322e-17 53.6435 34)">| </text><text font-family="Calibri,Calibri_MSFontService,sans-serif" font-weight="400" font-size="20" transform="matrix(2.31535e-17 -0.377778 0.378125 2.31322e-17 53.6435 29)">2020</text><text font-family="Calibri,Calibri_MSFontService,sans-serif" font-weight="400" font-size="20" transform="matrix(2.31535e-17 -0.377778 0.378125 2.31322e-17 62.2776 46)">Feb</text><text font-family="Calibri,Calibri_MSFontService,sans-serif" font-weight="400" font-size="20" transform="matrix(2.31535e-17 -0.377778 0.378125 2.31322e-17 70.9117 46)">Mar</text><text font-family="Calibri,Calibri_MSFontService,sans-serif" font-weight="400" font-size="20" transform="matrix(2.31535e-17 -0.377778 0.378125 2.31322e-17 79.5462 46)">Apr</text><text font-family="Calibri,Calibri_MSFontService,sans-serif" font-weight="400" font-size="20" transform="matrix(2.31535e-17 -0.377778 0.378125 2.31322e-17 88.1803 46)">May</text><text font-family="Calibri,Calibri_MSFontService,sans-serif" font-weight="400" font-size="20" transform="matrix(2.31535e-17 -0.377778 0.378125 2.31322e-17 96.8144 46)">Jun</text><text font-family="Calibri,Calibri_MSFontService,sans-serif" font-weight="400" font-size="20" transform="matrix(2.31535e-17 -0.377778 0.378125 2.31322e-17 105.449 46)">Jul</text><text font-family="Calibri,Calibri_MSFontService,sans-serif" font-weight="400" font-size="20" transform="matrix(2.31535e-17 -0.377778 0.378125 2.31322e-17 114.083 46)">Aug</text><text font-family="Calibri,Calibri_MSFontService,sans-serif" font-weight="400" font-size="20" transform="matrix(2.31535e-17 -0.377778 0.378125 2.31322e-17 122.717 46)">Sep</text><text font-family="Calibri,Calibri_MSFontService,sans-serif" font-weight="400" font-size="20" transform="matrix(2.31535e-17 -0.377778 0.378125 2.31322e-17 131.352 46)">Oct</text><text font-family="Calibri,Calibri_MSFontService,sans-serif" font-weight="400" font-size="20" transform="matrix(2.31535e-17 -0.377778 0.378125 2.31322e-17 139.986 46)">Nov</text><text font-family="Calibri,Calibri_MSFontService,sans-serif" font-weight="400" font-size="20" transform="matrix(2.31535e-17 -0.377778 0.378125 2.31322e-17 148.62 46)">Dec</text><text font-family="Calibri,Calibri_MSFontService,sans-serif" font-weight="400" font-size="20" transform="matrix(2.31535e-17 -0.377778 0.378125 2.31322e-17 157.254 46)">Jan </text><text font-family="Calibri,Calibri_MSFontService,sans-serif" font-weight="400" font-size="20" transform="matrix(2.31535e-17 -0.377778 0.378125 2.31322e-17 157.254 34)">| </text><text font-family="Calibri,Calibri_MSFontService,sans-serif" font-weight="400" font-size="20" transform="matrix(2.31535e-17 -0.377778 0.378125 2.31322e-17 157.254 29)">2021</text><text font-family="Calibri,Calibri_MSFontService,sans-serif" font-weight="400" font-size="20" transform="matrix(2.31535e-17 -0.377778 0.378125 2.31322e-17 165.888 46)">Feb</text><text font-family="Calibri,Calibri_MSFontService,sans-serif" font-weight="400" font-size="20" transform="matrix(2.31535e-17 -0.377778 0.378125 2.31322e-17 174.522 46)">Mar</text><text font-family="Calibri,Calibri_MSFontService,sans-serif" font-weight="400" font-size="20" transform="matrix(2.31535e-17 -0.377778 0.378125 2.31322e-17 183.157 46)">Apr</text><text font-family="Calibri,Calibri_MSFontService,sans-serif" font-weight="400" font-size="20" transform="matrix(2.31535e-17 -0.377778 0.378125 2.31322e-17 191.791 46)">May</text><text font-family="Calibri,Calibri_MSFontService,sans-serif" font-weight="400" font-size="20" transform="matrix(2.31535e-17 -0.377778 0.378125 2.31322e-17 200.425 46)">Jun</text><text font-family="Calibri,Calibri_MSFontService,sans-serif" font-weight="400" font-size="20" transform="matrix(2.31535e-17 -0.377778 0.378125 2.31322e-17 209.06 46)">Jul</text><text font-family="Calibri,Calibri_MSFontService,sans-serif" font-weight="400" font-size="20" transform="matrix(2.31535e-17 -0.377778 0.378125 2.31322e-17 217.694 46)">Aug</text><text font-family="Calibri,Calibri_MSFontService,sans-serif" font-weight="400" font-size="20" transform="matrix(2.31535e-17 -0.377778 0.378125 2.31322e-17 226.328 46)">Sep</text><text font-family="Calibri,Calibri_MSFontService,sans-serif" font-weight="400" font-size="20" transform="matrix(2.31535e-17 -0.377778 0.378125 2.31322e-17 234.962 46)">Oct</text><text font-family="Calibri,Calibri_MSFontService,sans-serif" font-weight="400" font-size="20" transform="matrix(2.31535e-17 -0.377778 0.378125 2.31322e-17 243.596 46)">Nov</text><text font-family="Calibri,Calibri_MSFontService,sans-serif" font-weight="400" font-size="20" transform="matrix(2.31535e-17 -0.377778 0.378125 2.31322e-17 252.231 46)">Dec</text><text font-family="Calibri,Calibri_MSFontService,sans-serif" font-weight="400" font-size="20" transform="matrix(2.31535e-17 -0.377778 0.378125 2.31322e-17 260.865 46)">Jan </text><text font-family="Calibri,Calibri_MSFontService,sans-serif" font-weight="400" font-size="20" transform="matrix(2.31535e-17 -0.377778 0.378125 2.31322e-17 260.865 34)">| </text><text font-family="Calibri,Calibri_MSFontService,sans-serif" font-weight="400" font-size="20" transform="matrix(2.31535e-17 -0.377778 0.378125 2.31322e-17 260.865 29)">2022</text><text font-family="Calibri,Calibri_MSFontService,sans-serif" font-weight="400" font-size="20" transform="matrix(2.31535e-17 -0.377778 0.378125 2.31322e-17 269.499 46)">Feb</text><text font-family="Calibri,Calibri_MSFontService,sans-serif" font-weight="400" font-size="20" transform="matrix(2.31535e-17 -0.377778 0.378125 2.31322e-17 278.133 46)">Mar</text><text font-family="Calibri,Calibri_MSFontService,sans-serif" font-weight="400" font-size="20" transform="matrix(2.31535e-17 -0.377778 0.378125 2.31322e-17 286.768 46)">Apr</text><text font-family="Calibri,Calibri_MSFontService,sans-serif" font-weight="400" font-size="20" transform="matrix(2.31535e-17 -0.377778 0.378125 2.31322e-17 295.402 46)">May</text><text font-family="Calibri,Calibri_MSFontService,sans-serif" font-weight="400" font-size="20" transform="matrix(2.31535e-17 -0.377778 0.378125 2.31322e-17 304.036 46)">Jun</text><text font-family="Calibri,Calibri_MSFontService,sans-serif" font-weight="400" font-size="20" transform="matrix(2.31535e-17 -0.377778 0.378125 2.31322e-17 312.67 46)">Jul</text><text font-family="Calibri,Calibri_MSFontService,sans-serif" font-weight="400" font-size="20" transform="matrix(2.31535e-17 -0.377778 0.378125 2.31322e-17 321.305 46)">Aug</text><text font-family="Calibri,Calibri_MSFontService,sans-serif" font-weight="400" font-size="20" transform="matrix(2.31535e-17 -0.377778 0.378125 2.31322e-17 329.939 46)">Sep</text><text font-family="Calibri,Calibri_MSFontService,sans-serif" font-weight="400" font-size="20" transform="matrix(2.31535e-17 -0.377778 0.378125 2.31322e-17 338.573 46)">Oct</text><text font-family="Calibri,Calibri_MSFontService,sans-serif" font-weight="400" font-size="20" transform="matrix(2.31535e-17 -0.377778 0.378125 2.31322e-17 347.207 46)">Nov</text><text font-family="Calibri,Calibri_MSFontService,sans-serif" font-weight="400" font-size="20" transform="matrix(2.31535e-17 -0.377778 0.378125 2.31322e-17 355.841 46)">Dec</text><text font-family="Calibri,Calibri_MSFontService,sans-serif" font-weight="400" font-size="20" transform="matrix(2.31535e-17 -0.377778 0.378125 2.31322e-17 364.476 46)">Jan </text><text font-family="Calibri,Calibri_MSFontService,sans-serif" font-weight="400" font-size="20" transform="matrix(2.31535e-17 -0.377778 0.378125 2.31322e-17 364.476 34)">| </text><text font-family="Calibri,Calibri_MSFontService,sans-serif" font-weight="400" font-size="20" transform="matrix(2.31535e-17 -0.377778 0.378125 2.31322e-17 364.476 29)">2023</text><text font-family="Calibri,Calibri_MSFontService,sans-serif" font-weight="400" font-size="20" transform="matrix(2.31535e-17 -0.377778 0.378125 2.31322e-17 373.11 46)">Feb</text><text font-family="Calibri,Calibri_MSFontService,sans-serif" font-weight="400" font-size="20" transform="matrix(2.31535e-17 -0.377778 0.378125 2.31322e-17 381.744 46)">Mar</text><text font-family="Calibri,Calibri_MSFontService,sans-serif" font-weight="400" font-size="20" transform="matrix(2.31535e-17 -0.377778 0.378125 2.31322e-17 390.38 46)">Apr</text><text font-family="Calibri,Calibri_MSFontService,sans-serif" font-weight="400" font-size="20" transform="matrix(2.31535e-17 -0.377778 0.378125 2.31322e-17 399.013 46)">May</text><text font-family="Calibri,Calibri_MSFontService,sans-serif" font-weight="400" font-size="20" transform="matrix(2.31535e-17 -0.377778 0.378125 2.31322e-17 407.645 46)">Jun</text><text font-family="Calibri,Calibri_MSFontService,sans-serif" font-weight="400" font-size="20" transform="matrix(2.31535e-17 -0.377778 0.378125 2.31322e-17 416.282 46)">Jul</text><text font-family="Calibri,Calibri_MSFontService,sans-serif" font-weight="400" font-size="20" transform="matrix(2.31535e-17 -0.377778 0.378125 2.31322e-17 424.914 46)">Aug</text><text font-family="Calibri,Calibri_MSFontService,sans-serif" font-weight="400" font-size="20" transform="matrix(2.31535e-17 -0.377778 0.378125 2.31322e-17 433.551 46)">Sep</text><text font-family="Calibri,Calibri_MSFontService,sans-serif" font-weight="400" font-size="20" transform="matrix(2.31535e-17 -0.377778 0.378125 2.31322e-17 442.183 46)">Oct</text><text font-family="Calibri,Calibri_MSFontService,sans-serif" font-weight="400" font-size="20" transform="matrix(2.31535e-17 -0.377778 0.378125 2.31322e-17 450.82 46)">Nov</text><text font-family="Calibri,Calibri_MSFontService,sans-serif" font-weight="400" font-size="20" transform="matrix(2.31535e-17 -0.377778 0.378125 2.31322e-17 459.452 46)">Dec</text><text font-family="Calibri,Calibri_MSFontService,sans-serif" font-weight="400" font-size="20" transform="matrix(2.31535e-17 -0.377778 0.378125 2.31322e-17 468.085 46)">Jan</text><text font-family="Calibri,Calibri_MSFontService,sans-serif" font-weight="400" font-size="20" transform="matrix(2.31535e-17 -0.377778 0.378125 2.31322e-17 468.085 36)">| </text><text font-family="Calibri,Calibri_MSFontService,sans-serif" font-weight="400" font-size="20" transform="matrix(2.31535e-17 -0.377778 0.378125 2.31322e-17 468.085 31)">2024</text><text font-family="Calibri,Calibri_MSFontService,sans-serif" font-weight="400" font-size="20" transform="matrix(2.31535e-17 -0.377778 0.378125 2.31322e-17 476.721 46)">Feb</text><text font-family="Calibri,Calibri_MSFontService,sans-serif" font-weight="400" font-size="20" transform="matrix(2.31535e-17 -0.377778 0.378125 2.31322e-17 485.354 46)">Mar</text><text font-family="Calibri,Calibri_MSFontService,sans-serif" font-weight="400" font-size="20" transform="matrix(2.31535e-17 -0.377778 0.378125 2.31322e-17 493.99 46)">Apr</text><text font-family="Calibri,Calibri_MSFontService,sans-serif" font-weight="400" font-size="20" transform="matrix(2.31535e-17 -0.377778 0.378125 2.31322e-17 502.623 46)">May</text><text font-family="Calibri,Calibri_MSFontService,sans-serif" font-weight="400" font-size="20" transform="matrix(2.31535e-17 -0.377778 0.378125 2.31322e-17 511.259 46)">Jun</text><text font-family="Calibri,Calibri_MSFontService,sans-serif" font-weight="400" font-size="20" transform="matrix(2.31535e-17 -0.377778 0.378125 2.31322e-17 519.892 46)">Jul</text><text font-family="Calibri,Calibri_MSFontService,sans-serif" font-weight="400" font-size="20" transform="matrix(2.31535e-17 -0.377778 0.378125 2.31322e-17 528.528 46)">Aug</text><text font-family="Calibri,Calibri_MSFontService,sans-serif" font-weight="400" font-size="20" transform="matrix(2.31535e-17 -0.377778 0.378125 2.31322e-17 537.161 46)">Sep</text><text font-family="Calibri,Calibri_MSFontService,sans-serif" font-weight="400" font-size="20" transform="matrix(2.31535e-17 -0.377778 0.378125 2.31322e-17 545.793 46)">Oct</text><text font-family="Calibri,Calibri_MSFontService,sans-serif" font-weight="400" font-size="20" transform="matrix(2.31535e-17 -0.377778 0.378125 2.31322e-17 554.43 46)">Nov</text><text font-family="Calibri,Calibri_MSFontService,sans-serif" font-weight="400" font-size="20" transform="matrix(2.31535e-17 -0.377778 0.378125 2.31322e-17 563.062 46)">Dec</text><text fill="#B02F2C" font-family="Aptos,Aptos_MSFontService,sans-serif" font-weight="400" font-size="20" transform="matrix(0.378125 0 0 0.377778 571.763 247)">0</text><text fill="#B02F2C" font-family="Aptos,Aptos_MSFontService,sans-serif" font-weight="400" font-size="20" transform="matrix(0.378125 0 0 0.377778 571.763 227)">200</text><text fill="#B02F2C" font-family="Aptos,Aptos_MSFontService,sans-serif" font-weight="400" font-size="20" transform="matrix(0.378125 0 0 0.377778 571.763 208)">400</text><text fill="#B02F2C" font-family="Aptos,Aptos_MSFontService,sans-serif" font-weight="400" font-size="20" transform="matrix(0.378125 0 0 0.377778 571.763 189)">600</text><text fill="#B02F2C" font-family="Aptos,Aptos_MSFontService,sans-serif" font-weight="400" font-size="20" transform="matrix(0.378125 0 0 0.377778 571.763 169)">800</text><text fill="#B02F2C" font-family="Aptos,Aptos_MSFontService,sans-serif" font-weight="400" font-size="20" transform="matrix(0.378125 0 0 0.377778 571.763 150)">1000</text><text fill="#B02F2C" font-family="Aptos,Aptos_MSFontService,sans-serif" font-weight="400" font-size="20" transform="matrix(0.378125 0 0 0.377778 571.763 131)">1200</text><text fill="#B02F2C" font-family="Aptos,Aptos_MSFontService,sans-serif" font-weight="400" font-size="20" transform="matrix(0.378125 0 0 0.377778 571.763 111)">1400</text><text fill="#B02F2C" font-family="Aptos,Aptos_MSFontService,sans-serif" font-weight="400" font-size="20" transform="matrix(0.378125 0 0 0.377778 571.763 92)">1600</text><text fill="#B02F2C" font-family="Aptos,Aptos_MSFontService,sans-serif" font-weight="400" font-size="20" transform="matrix(0.378125 0 0 0.377778 571.763 73)">1800</text><text fill="#B02F2C" font-family="Aptos,Aptos_MSFontService,sans-serif" font-weight="400" font-size="20" transform="matrix(0.378125 0 0 0.377778 571.763 53)">2000</text><text fill="#4CA2B9" font-family="Aptos,Aptos_MSFontService,sans-serif" font-weight="400" font-size="20" transform="matrix(0.378125 0 0 0.377778 27.1163 247)">0</text><text fill="#4CA2B9" font-family="Aptos,Aptos_MSFontService,sans-serif" font-weight="400" font-size="20" transform="matrix(0.378125 0 0 0.377778 19.0559 227)">200</text><text fill="#4CA2B9" font-family="Aptos,Aptos_MSFontService,sans-serif" font-weight="400" font-size="20" transform="matrix(0.378125 0 0 0.377778 19.0559 208)">400</text><text fill="#4CA2B9" font-family="Aptos,Aptos_MSFontService,sans-serif" font-weight="400" font-size="20" transform="matrix(0.378125 0 0 0.377778 19.0559 189)">600</text><text fill="#4CA2B9" font-family="Aptos,Aptos_MSFontService,sans-serif" font-weight="400" font-size="20" transform="matrix(0.378125 0 0 0.377778 19.0559 169)">800</text><text fill="#4CA2B9" font-family="Aptos,Aptos_MSFontService,sans-serif" font-weight="400" font-size="20" transform="matrix(0.378125 0 0 0.377778 15.0257 150)">1000</text><text fill="#4CA2B9" font-family="Aptos,Aptos_MSFontService,sans-serif" font-weight="400" font-size="20" transform="matrix(0.378125 0 0 0.377778 15.0257 131)">1200</text><text fill="#4CA2B9" font-family="Aptos,Aptos_MSFontService,sans-serif" font-weight="400" font-size="20" transform="matrix(0.378125 0 0 0.377778 15.0257 111)">1400</text><text fill="#4CA2B9" font-family="Aptos,Aptos_MSFontService,sans-serif" font-weight="400" font-size="20" transform="matrix(0.378125 0 0 0.377778 15.0257 92)">1600</text><text fill="#4CA2B9" font-family="Aptos,Aptos_MSFontService,sans-serif" font-weight="400" font-size="20" transform="matrix(0.378125 0 0 0.377778 15.0257 73)">1800</text><text fill="#4CA2B9" font-family="Aptos,Aptos_MSFontService,sans-serif" font-weight="400" font-size="20" transform="matrix(0.378125 0 0 0.377778 15.0257 53)">2000</text><text fill="#7F7F7F" font-family="Aptos,Aptos_MSFontService,sans-serif" font-weight="400" font-size="20" transform="matrix(2.31535e-17 -0.377778 0.378125 2.31322e-17 45.2956 261)">T</text><text fill="#7F7F7F" font-family="Aptos,Aptos_MSFontService,sans-serif" font-weight="400" font-size="20" transform="matrix(2.31535e-17 -0.377778 0.378125 2.31322e-17 45.2956 257)">01</text><text fill="#7F7F7F" font-family="Aptos,Aptos_MSFontService,sans-serif" font-weight="400" font-size="20" transform="matrix(2.31535e-17 -0.377778 0.378125 2.31322e-17 71.1983 261)">T</text><text fill="#7F7F7F" font-family="Aptos,Aptos_MSFontService,sans-serif" font-weight="400" font-size="20" transform="matrix(2.31535e-17 -0.377778 0.378125 2.31322e-17 71.1983 257)">02</text><text fill="#7F7F7F" font-family="Aptos,Aptos_MSFontService,sans-serif" font-weight="400" font-size="20" transform="matrix(2.31535e-17 -0.377778 0.378125 2.31322e-17 79.8328 261)">T</text><text fill="#7F7F7F" font-family="Aptos,Aptos_MSFontService,sans-serif" font-weight="400" font-size="20" transform="matrix(2.31535e-17 -0.377778 0.378125 2.31322e-17 79.8328 257)">03</text><text fill="#7F7F7F" font-family="Aptos,Aptos_MSFontService,sans-serif" font-weight="400" font-size="20" transform="matrix(2.31535e-17 -0.377778 0.378125 2.31322e-17 88.4669 261)">T</text><text fill="#7F7F7F" font-family="Aptos,Aptos_MSFontService,sans-serif" font-weight="400" font-size="20" transform="matrix(2.31535e-17 -0.377778 0.378125 2.31322e-17 88.4669 257)">04</text><text fill="#7F7F7F" font-family="Aptos,Aptos_MSFontService,sans-serif" font-weight="400" font-size="20" transform="matrix(2.31535e-17 -0.377778 0.378125 2.31322e-17 97.101 261)">T</text><text fill="#7F7F7F" font-family="Aptos,Aptos_MSFontService,sans-serif" font-weight="400" font-size="20" transform="matrix(2.31535e-17 -0.377778 0.378125 2.31322e-17 97.101 257)">05</text><text fill="#7F7F7F" font-family="Aptos,Aptos_MSFontService,sans-serif" font-weight="400" font-size="20" transform="matrix(2.31535e-17 -0.377778 0.378125 2.31322e-17 105.735 261)">T</text><text fill="#7F7F7F" font-family="Aptos,Aptos_MSFontService,sans-serif" font-weight="400" font-size="20" transform="matrix(2.31535e-17 -0.377778 0.378125 2.31322e-17 105.735 257)">06</text><text fill="#7F7F7F" font-family="Aptos,Aptos_MSFontService,sans-serif" font-weight="400" font-size="20" transform="matrix(2.31535e-17 -0.377778 0.378125 2.31322e-17 114.37 261)">T</text><text fill="#7F7F7F" font-family="Aptos,Aptos_MSFontService,sans-serif" font-weight="400" font-size="20" transform="matrix(2.31535e-17 -0.377778 0.378125 2.31322e-17 114.37 257)">07</text><text fill="#7F7F7F" font-family="Aptos,Aptos_MSFontService,sans-serif" font-weight="400" font-size="20" transform="matrix(2.31535e-17 -0.377778 0.378125 2.31322e-17 123.004 261)">T</text><text fill="#7F7F7F" font-family="Aptos,Aptos_MSFontService,sans-serif" font-weight="400" font-size="20" transform="matrix(2.31535e-17 -0.377778 0.378125 2.31322e-17 123.004 257)">08</text><text fill="#7F7F7F" font-family="Aptos,Aptos_MSFontService,sans-serif" font-weight="400" font-size="20" transform="matrix(2.31535e-17 -0.377778 0.378125 2.31322e-17 131.638 261)">T</text><text fill="#7F7F7F" font-family="Aptos,Aptos_MSFontService,sans-serif" font-weight="400" font-size="20" transform="matrix(2.31535e-17 -0.377778 0.378125 2.31322e-17 131.638 257)">09</text><text fill="#7F7F7F" font-family="Aptos,Aptos_MSFontService,sans-serif" font-weight="400" font-size="20" transform="matrix(2.31535e-17 -0.377778 0.378125 2.31322e-17 140.272 261)">T</text><text fill="#7F7F7F" font-family="Aptos,Aptos_MSFontService,sans-serif" font-weight="400" font-size="20" transform="matrix(2.31535e-17 -0.377778 0.378125 2.31322e-17 140.272 257)">10</text><text fill="#7F7F7F" font-family="Aptos,Aptos_MSFontService,sans-serif" font-weight="400" font-size="20" transform="matrix(2.31535e-17 -0.377778 0.378125 2.31322e-17 148.906 261)">T</text><text fill="#7F7F7F" font-family="Aptos,Aptos_MSFontService,sans-serif" font-weight="400" font-size="20" transform="matrix(2.31535e-17 -0.377778 0.378125 2.31322e-17 148.906 257)">11</text><text fill="#7F7F7F" font-family="Aptos,Aptos_MSFontService,sans-serif" font-weight="400" font-size="20" transform="matrix(2.31535e-17 -0.377778 0.378125 2.31322e-17 157.541 261)">T</text><text fill="#7F7F7F" font-family="Aptos,Aptos_MSFontService,sans-serif" font-weight="400" font-size="20" transform="matrix(2.31535e-17 -0.377778 0.378125 2.31322e-17 157.541 257)">12</text><text fill="#7F7F7F" font-family="Aptos,Aptos_MSFontService,sans-serif" font-weight="400" font-size="20" transform="matrix(2.31535e-17 -0.377778 0.378125 2.31322e-17 166.175 261)">T</text><text fill="#7F7F7F" font-family="Aptos,Aptos_MSFontService,sans-serif" font-weight="400" font-size="20" transform="matrix(2.31535e-17 -0.377778 0.378125 2.31322e-17 166.175 257)">13</text><text fill="#7F7F7F" font-family="Aptos,Aptos_MSFontService,sans-serif" font-weight="400" font-size="20" transform="matrix(2.31535e-17 -0.377778 0.378125 2.31322e-17 174.809 261)">T</text><text fill="#7F7F7F" font-family="Aptos,Aptos_MSFontService,sans-serif" font-weight="400" font-size="20" transform="matrix(2.31535e-17 -0.377778 0.378125 2.31322e-17 174.809 257)">14</text><text fill="#7F7F7F" font-family="Aptos,Aptos_MSFontService,sans-serif" font-weight="400" font-size="20" transform="matrix(2.31535e-17 -0.377778 0.378125 2.31322e-17 183.444 261)">T</text><text fill="#7F7F7F" font-family="Aptos,Aptos_MSFontService,sans-serif" font-weight="400" font-size="20" transform="matrix(2.31535e-17 -0.377778 0.378125 2.31322e-17 183.444 257)">15</text><text fill="#7F7F7F" font-family="Aptos,Aptos_MSFontService,sans-serif" font-weight="400" font-size="20" transform="matrix(2.31535e-17 -0.377778 0.378125 2.31322e-17 192.078 261)">T</text><text fill="#7F7F7F" font-family="Aptos,Aptos_MSFontService,sans-serif" font-weight="400" font-size="20" transform="matrix(2.31535e-17 -0.377778 0.378125 2.31322e-17 192.078 257)">16</text><text fill="#7F7F7F" font-family="Aptos,Aptos_MSFontService,sans-serif" font-weight="400" font-size="20" transform="matrix(2.31535e-17 -0.377778 0.378125 2.31322e-17 200.712 261)">T</text><text fill="#7F7F7F" font-family="Aptos,Aptos_MSFontService,sans-serif" font-weight="400" font-size="20" transform="matrix(2.31535e-17 -0.377778 0.378125 2.31322e-17 200.712 257)">17</text><text fill="#7F7F7F" font-family="Aptos,Aptos_MSFontService,sans-serif" font-weight="400" font-size="20" transform="matrix(2.31535e-17 -0.377778 0.378125 2.31322e-17 209.346 261)">T</text><text fill="#7F7F7F" font-family="Aptos,Aptos_MSFontService,sans-serif" font-weight="400" font-size="20" transform="matrix(2.31535e-17 -0.377778 0.378125 2.31322e-17 209.346 257)">18</text><text fill="#7F7F7F" font-family="Aptos,Aptos_MSFontService,sans-serif" font-weight="400" font-size="20" transform="matrix(2.31535e-17 -0.377778 0.378125 2.31322e-17 217.98 261)">T</text><text fill="#7F7F7F" font-family="Aptos,Aptos_MSFontService,sans-serif" font-weight="400" font-size="20" transform="matrix(2.31535e-17 -0.377778 0.378125 2.31322e-17 217.98 257)">19</text><text fill="#7F7F7F" font-family="Aptos,Aptos_MSFontService,sans-serif" font-weight="400" font-size="20" transform="matrix(2.31535e-17 -0.377778 0.378125 2.31322e-17 226.614 261)">T</text><text fill="#7F7F7F" font-family="Aptos,Aptos_MSFontService,sans-serif" font-weight="400" font-size="20" transform="matrix(2.31535e-17 -0.377778 0.378125 2.31322e-17 226.614 257)">20</text><text fill="#7F7F7F" font-family="Aptos,Aptos_MSFontService,sans-serif" font-weight="400" font-size="20" transform="matrix(2.31535e-17 -0.377778 0.378125 2.31322e-17 235.249 261)">T</text><text fill="#7F7F7F" font-family="Aptos,Aptos_MSFontService,sans-serif" font-weight="400" font-size="20" transform="matrix(2.31535e-17 -0.377778 0.378125 2.31322e-17 235.249 257)">21</text><text fill="#7F7F7F" font-family="Aptos,Aptos_MSFontService,sans-serif" font-weight="400" font-size="20" transform="matrix(2.31535e-17 -0.377778 0.378125 2.31322e-17 243.883 261)">T</text><text fill="#7F7F7F" font-family="Aptos,Aptos_MSFontService,sans-serif" font-weight="400" font-size="20" transform="matrix(2.31535e-17 -0.377778 0.378125 2.31322e-17 243.883 257)">22</text><text fill="#7F7F7F" font-family="Aptos,Aptos_MSFontService,sans-serif" font-weight="400" font-size="20" transform="matrix(2.31535e-17 -0.377778 0.378125 2.31322e-17 252.517 261)">T</text><text fill="#7F7F7F" font-family="Aptos,Aptos_MSFontService,sans-serif" font-weight="400" font-size="20" transform="matrix(2.31535e-17 -0.377778 0.378125 2.31322e-17 252.517 257)">23</text><text fill="#7F7F7F" font-family="Aptos,Aptos_MSFontService,sans-serif" font-weight="400" font-size="20" transform="matrix(2.31535e-17 -0.377778 0.378125 2.31322e-17 261.152 261)">T</text><text fill="#7F7F7F" font-family="Aptos,Aptos_MSFontService,sans-serif" font-weight="400" font-size="20" transform="matrix(2.31535e-17 -0.377778 0.378125 2.31322e-17 261.152 257)">24</text><text fill="#7F7F7F" font-family="Aptos,Aptos_MSFontService,sans-serif" font-weight="400" font-size="20" transform="matrix(2.31535e-17 -0.377778 0.378125 2.31322e-17 269.786 261)">T</text><text fill="#7F7F7F" font-family="Aptos,Aptos_MSFontService,sans-serif" font-weight="400" font-size="20" transform="matrix(2.31535e-17 -0.377778 0.378125 2.31322e-17 269.786 257)">25</text><text fill="#7F7F7F" font-family="Aptos,Aptos_MSFontService,sans-serif" font-weight="400" font-size="20" transform="matrix(2.31535e-17 -0.377778 0.378125 2.31322e-17 278.42 261)">T</text><text fill="#7F7F7F" font-family="Aptos,Aptos_MSFontService,sans-serif" font-weight="400" font-size="20" transform="matrix(2.31535e-17 -0.377778 0.378125 2.31322e-17 278.42 257)">26</text><text fill="#7F7F7F" font-family="Aptos,Aptos_MSFontService,sans-serif" font-weight="400" font-size="20" transform="matrix(2.31535e-17 -0.377778 0.378125 2.31322e-17 287.054 261)">T</text><text fill="#7F7F7F" font-family="Aptos,Aptos_MSFontService,sans-serif" font-weight="400" font-size="20" transform="matrix(2.31535e-17 -0.377778 0.378125 2.31322e-17 287.054 257)">27</text><text fill="#7F7F7F" font-family="Aptos,Aptos_MSFontService,sans-serif" font-weight="400" font-size="20" transform="matrix(2.31535e-17 -0.377778 0.378125 2.31322e-17 295.688 261)">T</text><text fill="#7F7F7F" font-family="Aptos,Aptos_MSFontService,sans-serif" font-weight="400" font-size="20" transform="matrix(2.31535e-17 -0.377778 0.378125 2.31322e-17 295.688 257)">28</text><text fill="#7F7F7F" font-family="Aptos,Aptos_MSFontService,sans-serif" font-weight="400" font-size="20" transform="matrix(2.31535e-17 -0.377778 0.378125 2.31322e-17 304.323 261)">T</text><text fill="#7F7F7F" font-family="Aptos,Aptos_MSFontService,sans-serif" font-weight="400" font-size="20" transform="matrix(2.31535e-17 -0.377778 0.378125 2.31322e-17 304.323 257)">29</text><text fill="#7F7F7F" font-family="Aptos,Aptos_MSFontService,sans-serif" font-weight="400" font-size="20" transform="matrix(2.31535e-17 -0.377778 0.378125 2.31322e-17 312.957 261)">T</text><text fill="#7F7F7F" font-family="Aptos,Aptos_MSFontService,sans-serif" font-weight="400" font-size="20" transform="matrix(2.31535e-17 -0.377778 0.378125 2.31322e-17 312.957 257)">30</text><text fill="#7F7F7F" font-family="Aptos,Aptos_MSFontService,sans-serif" font-weight="400" font-size="20" transform="matrix(2.31535e-17 -0.377778 0.378125 2.31322e-17 321.591 261)">T</text><text fill="#7F7F7F" font-family="Aptos,Aptos_MSFontService,sans-serif" font-weight="400" font-size="20" transform="matrix(2.31535e-17 -0.377778 0.378125 2.31322e-17 321.591 257)">31</text><text fill="#7F7F7F" font-family="Aptos,Aptos_MSFontService,sans-serif" font-weight="400" font-size="20" transform="matrix(2.31535e-17 -0.377778 0.378125 2.31322e-17 330.225 261)">T</text><text fill="#7F7F7F" font-family="Aptos,Aptos_MSFontService,sans-serif" font-weight="400" font-size="20" transform="matrix(2.31535e-17 -0.377778 0.378125 2.31322e-17 330.225 257)">32</text><text fill="#7F7F7F" font-family="Aptos,Aptos_MSFontService,sans-serif" font-weight="400" font-size="20" transform="matrix(2.31535e-17 -0.377778 0.378125 2.31322e-17 338.86 261)">T</text><text fill="#7F7F7F" font-family="Aptos,Aptos_MSFontService,sans-serif" font-weight="400" font-size="20" transform="matrix(2.31535e-17 -0.377778 0.378125 2.31322e-17 338.86 257)">33</text><text fill="#7F7F7F" font-family="Aptos,Aptos_MSFontService,sans-serif" font-weight="400" font-size="20" transform="matrix(2.31535e-17 -0.377778 0.378125 2.31322e-17 347.494 261)">T</text><text fill="#7F7F7F" font-family="Aptos,Aptos_MSFontService,sans-serif" font-weight="400" font-size="20" transform="matrix(2.31535e-17 -0.377778 0.378125 2.31322e-17 347.494 257)">34</text><text fill="#7F7F7F" font-family="Aptos,Aptos_MSFontService,sans-serif" font-weight="400" font-size="20" transform="matrix(2.31535e-17 -0.377778 0.378125 2.31322e-17 356.128 261)">T</text><text fill="#7F7F7F" font-family="Aptos,Aptos_MSFontService,sans-serif" font-weight="400" font-size="20" transform="matrix(2.31535e-17 -0.377778 0.378125 2.31322e-17 356.128 257)">35</text><text fill="#7F7F7F" font-family="Aptos,Aptos_MSFontService,sans-serif" font-weight="400" font-size="20" transform="matrix(2.31535e-17 -0.377778 0.378125 2.31322e-17 407.933 261)">T</text><text fill="#7F7F7F" font-family="Aptos,Aptos_MSFontService,sans-serif" font-weight="400" font-size="20" transform="matrix(2.31535e-17 -0.377778 0.378125 2.31322e-17 407.933 257)">36</text><text fill="#7F7F7F" font-family="Aptos,Aptos_MSFontService,sans-serif" font-weight="400" font-size="20" transform="matrix(2.31535e-17 -0.377778 0.378125 2.31322e-17 416.569 261)">T</text><text fill="#7F7F7F" font-family="Aptos,Aptos_MSFontService,sans-serif" font-weight="400" font-size="20" transform="matrix(2.31535e-17 -0.377778 0.378125 2.31322e-17 416.569 257)">37</text><text fill="#7F7F7F" font-family="Aptos,Aptos_MSFontService,sans-serif" font-weight="400" font-size="20" transform="matrix(2.31535e-17 -0.377778 0.378125 2.31322e-17 425.202 261)">T</text><text fill="#7F7F7F" font-family="Aptos,Aptos_MSFontService,sans-serif" font-weight="400" font-size="20" transform="matrix(2.31535e-17 -0.377778 0.378125 2.31322e-17 425.202 257)">38</text><text fill="#7F7F7F" font-family="Aptos,Aptos_MSFontService,sans-serif" font-weight="400" font-size="20" transform="matrix(2.31535e-17 -0.377778 0.378125 2.31322e-17 433.838 261)">T</text><text fill="#7F7F7F" font-family="Aptos,Aptos_MSFontService,sans-serif" font-weight="400" font-size="20" transform="matrix(2.31535e-17 -0.377778 0.378125 2.31322e-17 433.838 257)">39</text><text fill="#7F7F7F" font-family="Aptos,Aptos_MSFontService,sans-serif" font-weight="400" font-size="20" transform="matrix(2.31535e-17 -0.377778 0.378125 2.31322e-17 442.471 261)">T</text><text fill="#7F7F7F" font-family="Aptos,Aptos_MSFontService,sans-serif" font-weight="400" font-size="20" transform="matrix(2.31535e-17 -0.377778 0.378125 2.31322e-17 442.471 257)">40</text><text fill="#7F7F7F" font-family="Aptos,Aptos_MSFontService,sans-serif" font-weight="400" font-size="20" transform="matrix(2.31535e-17 -0.377778 0.378125 2.31322e-17 451.103 261)">T</text><text fill="#7F7F7F" font-family="Aptos,Aptos_MSFontService,sans-serif" font-weight="400" font-size="20" transform="matrix(2.31535e-17 -0.377778 0.378125 2.31322e-17 451.103 257)">41</text><text fill="#7F7F7F" font-family="Aptos,Aptos_MSFontService,sans-serif" font-weight="400" font-size="20" transform="matrix(2.31535e-17 -0.377778 0.378125 2.31322e-17 459.74 261)">T</text><text fill="#7F7F7F" font-family="Aptos,Aptos_MSFontService,sans-serif" font-weight="400" font-size="20" transform="matrix(2.31535e-17 -0.377778 0.378125 2.31322e-17 459.74 257)">42</text><text fill="#7F7F7F" font-family="Aptos,Aptos_MSFontService,sans-serif" font-weight="400" font-size="20" transform="matrix(2.31535e-17 -0.377778 0.378125 2.31322e-17 468.372 261)">T</text><text fill="#7F7F7F" font-family="Aptos,Aptos_MSFontService,sans-serif" font-weight="400" font-size="20" transform="matrix(2.31535e-17 -0.377778 0.378125 2.31322e-17 468.372 257)">43</text><text fill="#7F7F7F" font-family="Aptos,Aptos_MSFontService,sans-serif" font-weight="400" font-size="20" transform="matrix(2.31535e-17 -0.377778 0.378125 2.31322e-17 477.008 261)">T</text><text fill="#7F7F7F" font-family="Aptos,Aptos_MSFontService,sans-serif" font-weight="400" font-size="20" transform="matrix(2.31535e-17 -0.377778 0.378125 2.31322e-17 477.008 257)">44</text><text fill="#7F7F7F" font-family="Aptos,Aptos_MSFontService,sans-serif" font-weight="400" font-size="20" transform="matrix(2.31535e-17 -0.377778 0.378125 2.31322e-17 485.641 261)">T</text><text fill="#7F7F7F" font-family="Aptos,Aptos_MSFontService,sans-serif" font-weight="400" font-size="20" transform="matrix(2.31535e-17 -0.377778 0.378125 2.31322e-17 485.641 257)">45</text><text fill="#7F7F7F" font-family="Aptos,Aptos_MSFontService,sans-serif" font-weight="400" font-size="20" transform="matrix(2.31535e-17 -0.377778 0.378125 2.31322e-17 494.277 261)">T</text><text fill="#7F7F7F" font-family="Aptos,Aptos_MSFontService,sans-serif" font-weight="400" font-size="20" transform="matrix(2.31535e-17 -0.377778 0.378125 2.31322e-17 494.277 257)">46</text><text fill="#7F7F7F" font-family="Aptos,Aptos_MSFontService,sans-serif" font-weight="400" font-size="20" transform="matrix(2.31535e-17 -0.377778 0.378125 2.31322e-17 502.91 261)">T</text><text fill="#7F7F7F" font-family="Aptos,Aptos_MSFontService,sans-serif" font-weight="400" font-size="20" transform="matrix(2.31535e-17 -0.377778 0.378125 2.31322e-17 502.91 257)">47</text><text fill="#7F7F7F" font-family="Aptos,Aptos_MSFontService,sans-serif" font-weight="400" font-size="20" transform="matrix(2.31535e-17 -0.377778 0.378125 2.31322e-17 511.543 261)">T</text><text fill="#7F7F7F" font-family="Aptos,Aptos_MSFontService,sans-serif" font-weight="400" font-size="20" transform="matrix(2.31535e-17 -0.377778 0.378125 2.31322e-17 511.543 257)">48</text><text fill="#7F7F7F" font-family="Aptos,Aptos_MSFontService,sans-serif" font-weight="400" font-size="20" transform="matrix(2.31535e-17 -0.377778 0.378125 2.31322e-17 520.179 261)">T</text><text fill="#7F7F7F" font-family="Aptos,Aptos_MSFontService,sans-serif" font-weight="400" font-size="20" transform="matrix(2.31535e-17 -0.377778 0.378125 2.31322e-17 520.179 257)">49</text><text fill="#7F7F7F" font-family="Aptos,Aptos_MSFontService,sans-serif" font-weight="400" font-size="20" transform="matrix(2.31535e-17 -0.377778 0.378125 2.31322e-17 528.812 261)">T</text><text fill="#7F7F7F" font-family="Aptos,Aptos_MSFontService,sans-serif" font-weight="400" font-size="20" transform="matrix(2.31535e-17 -0.377778 0.378125 2.31322e-17 528.812 257)">50</text><text fill="#7F7F7F" font-family="Aptos,Aptos_MSFontService,sans-serif" font-weight="400" font-size="20" transform="matrix(2.31535e-17 -0.377778 0.378125 2.31322e-17 537.448 261)">T</text><text fill="#7F7F7F" font-family="Aptos,Aptos_MSFontService,sans-serif" font-weight="400" font-size="20" transform="matrix(2.31535e-17 -0.377778 0.378125 2.31322e-17 537.448 257)">51</text><text fill="#7F7F7F" font-family="Aptos,Aptos_MSFontService,sans-serif" font-weight="400" font-size="20" transform="matrix(2.31535e-17 -0.377778 0.378125 2.31322e-17 546.081 261)">T</text><text fill="#7F7F7F" font-family="Aptos,Aptos_MSFontService,sans-serif" font-weight="400" font-size="20" transform="matrix(2.31535e-17 -0.377778 0.378125 2.31322e-17 546.081 257)">52</text><text fill="#7F7F7F" font-family="Aptos,Aptos_MSFontService,sans-serif" font-weight="400" font-size="20" transform="matrix(2.31535e-17 -0.377778 0.378125 2.31322e-17 554.717 261)">T</text><text fill="#7F7F7F" font-family="Aptos,Aptos_MSFontService,sans-serif" font-weight="400" font-size="20" transform="matrix(2.31535e-17 -0.377778 0.378125 2.31322e-17 554.717 257)">53</text><text fill="#7F7F7F" font-family="Aptos,Aptos_MSFontService,sans-serif" font-weight="400" font-size="20" transform="matrix(2.31535e-17 -0.377778 0.378125 2.31322e-17 563.35 261)">T</text><text fill="#7F7F7F" font-family="Aptos,Aptos_MSFontService,sans-serif" font-weight="400" font-size="20" transform="matrix(2.31535e-17 -0.377778 0.378125 2.31322e-17 563.35 257)">54</text><path d="M220.811 163.011 277.856 163.011 277.856 186.056 220.811 186.056Z" stroke="#7F7F7F" stroke-width="0.472222" stroke-linejoin="round" stroke-miterlimit="10" fill="#FFFFFF" transform="scale(1.00092 1)"/><text font-family="Aptos,Aptos_MSFontService,sans-serif" font-weight="700" font-size="20" transform="matrix(0.378125 0 0 0.377778 241.637 172)">New</text><text font-family="Aptos,Aptos_MSFontService,sans-serif" font-weight="700" font-size="20" transform="matrix(0.378125 0 0 0.377778 229.411 181)">restrictions</text><path d="M249.302 186.056 249.302 198.317 248.987 198.317 248.987 186.056ZM251.033 197.687 249.144 201.465 247.256 197.687Z" transform="scale(1.00092 1)"/><path d="M287.835 231.011 287.835 239.196 287.52 239.196 287.52 231.011ZM289.567 238.567 287.678 242.344 285.789 238.567Z" transform="scale(1.00092 1)"/><path d="M255.567 207.967 320.922 207.967 320.922 230.633 255.567 230.633Z" stroke="#7F7F7F" stroke-width="0.472222" stroke-linejoin="round" stroke-miterlimit="10" fill="#FFFFFF" transform="scale(1.00092 1)"/><text font-family="Aptos,Aptos_MSFontService,sans-serif" font-weight="700" font-size="20" transform="matrix(0.378125 0 0 0.377778 272.589 217)">Easing of</text><text font-family="Aptos,Aptos_MSFontService,sans-serif" font-weight="700" font-size="20" transform="matrix(0.378125 0 0 0.377778 268.316 226)">restrictions</text><path d="M133.544 184.544 203.056 184.544 203.056 207.589 133.544 207.589Z" stroke="#7F7F7F" stroke-width="0.472222" stroke-linejoin="round" stroke-miterlimit="10" fill="#FFFFFF" transform="scale(1.00092 1)"/><text font-family="Aptos,Aptos_MSFontService,sans-serif" font-weight="700" font-size="20" transform="matrix(0.378125 0 0 0.377778 149.58 193)">2</text><text font-family="Aptos,Aptos_MSFontService,sans-serif" font-weight="700" font-size="20" transform="matrix(0.378125 0 0 0.377778 153.74 193)">. </text><text font-family="Aptos,Aptos_MSFontService,sans-serif" font-weight="700" font-size="20" transform="matrix(0.378125 0 0 0.377778 157.521 193)">National</text><text font-family="Aptos,Aptos_MSFontService,sans-serif" font-weight="700" font-size="20" transform="matrix(0.378125 0 0 0.377778 151.528 202)">lockdown</text><path d="M127.878 145.256 184.922 145.256 184.922 168.3 127.878 168.3Z" stroke="#7F7F7F" stroke-width="0.472222" stroke-linejoin="round" stroke-miterlimit="10" fill="#FFFFFF" transform="scale(1.00092 1)"/><text font-family="Aptos,Aptos_MSFontService,sans-serif" font-weight="700" font-size="20" transform="matrix(0.378125 0 0 0.377778 133.879 154)">Vaccinations</text><text font-family="Aptos,Aptos_MSFontService,sans-serif" font-weight="700" font-size="20" transform="matrix(0.378125 0 0 0.377778 140.675 163)">available</text><path d="M55.7222 199.656 112.767 199.656 112.767 222.7 55.7222 222.7Z" stroke="#7F7F7F" stroke-width="0.472222" stroke-linejoin="round" stroke-miterlimit="10" fill="#FFFFFF" transform="scale(1.00092 1)"/><text font-family="Aptos,Aptos_MSFontService,sans-serif" font-weight="700" font-size="20" transform="matrix(0.378125 0 0 0.377778 65.4273 209)">1</text><text font-family="Aptos,Aptos_MSFontService,sans-serif" font-weight="700" font-size="20" transform="matrix(0.378125 0 0 0.377778 69.5867 209)">. </text><text font-family="Aptos,Aptos_MSFontService,sans-serif" font-weight="700" font-size="20" transform="matrix(0.378125 0 0 0.377778 73.368 209)">National</text><text font-family="Aptos,Aptos_MSFontService,sans-serif" font-weight="700" font-size="20" transform="matrix(0.378125 0 0 0.377778 67.3747 218)">lockdown</text><path d="M155.991 168.3 155.991 176.687 155.676 176.687 155.676 168.3ZM157.722 176.058 155.833 179.835 153.944 176.058Z" transform="scale(1.00092 1)"/><path d="M144.28 212.5 144.28 220.887 143.965 220.887 143.965 212.5ZM146.011 220.258 144.122 224.035 142.233 220.258Z" transform="scale(1.00092 1)"/><path d="M188.858 212.5 188.858 220.887 188.542 220.887 188.542 212.5ZM190.589 220.258 188.7 224.035 186.811 220.258Z" transform="scale(1.00092 1)"/><path d="M144.122 212.5 188.627 212.5" stroke="#000000" stroke-width="0.314815" stroke-miterlimit="8" fill="none" fill-rule="evenodd" transform="scale(1.00092 1)"/><path d="M167.922 207.589 167.922 212.122" stroke="#000000" stroke-width="0.314815" stroke-miterlimit="8" fill="none" fill-rule="evenodd" transform="scale(1.00092 1)"/><path d="M74.7686 227.611 74.7686 235.999 74.4536 235.999 74.4536 227.611ZM76.5 235.369 74.6111 239.147 72.7222 235.369Z" transform="scale(1.00092 1)"/><path d="M92.1464 227.611 92.1464 235.999 91.8314 235.999 91.8314 227.611ZM93.8778 235.369 91.9889 239.147 90.1 235.369Z" transform="scale(1.00092 1)"/><path d="M74.6111 227.611 92.0032 227.611" stroke="#000000" stroke-width="0.314815" stroke-miterlimit="8" fill="none" fill-rule="evenodd" transform="scale(1.00092 1)"/><path d="M83.6778 223.078 83.6778 227.611" stroke="#000000" stroke-width="0.314815" stroke-miterlimit="8" fill="none" fill-rule="evenodd" transform="scale(1.00092 1)"/><path d="M387.192 221.567 387.192 229.752 386.875 229.752 386.875 221.567ZM388.922 229.122 387.033 232.9 385.144 229.122Z" transform="scale(1.00092 1)"/><path d="M359.456 198.522 415.367 198.522 415.367 221.567 359.456 221.567Z" stroke="#7F7F7F" stroke-width="0.472222" stroke-linejoin="round" stroke-miterlimit="10" fill="#FFFFFF" transform="scale(1.00092 1)"/><text font-family="Aptos,Aptos_MSFontService,sans-serif" font-weight="700" font-size="20" transform="matrix(0.378125 0 0 0.377778 376.822 207)">End of</text><text font-family="Aptos,Aptos_MSFontService,sans-serif" font-weight="700" font-size="20" transform="matrix(0.378125 0 0 0.377778 367.718 216)">restrictions</text><path d="M397.83 272.953 397.83 266.648 398.148 266.648 398.148 272.953ZM396.1 267.278 397.989 263.5 399.878 267.278Z" transform="scale(1.00092 1)"/><path d="M359.298 272.953 359.298 266.648 359.613 266.648 359.613 272.953ZM357.567 267.278 359.456 263.5 361.344 267.278Z" transform="scale(1.00092 1)"/><path d="M397.955 272.944 359.456 272.944" stroke="#000000" stroke-width="0.314815" stroke-miterlimit="8" fill="none" fill-rule="evenodd" transform="scale(1.00092 1)"/><path d="M377.967 278.299 377.967 272.944" stroke="#000000" stroke-width="0.314815" stroke-miterlimit="8" fill="none" fill-rule="evenodd" transform="scale(1.00092 1)"/><text font-family="Aptos,Aptos_MSFontService,sans-serif" font-weight="400" font-size="20" transform="matrix(0.378125 0 0 0.377778 364.597 285)">6</text><text font-family="Aptos,Aptos_MSFontService,sans-serif" font-weight="400" font-size="20" transform="matrix(0.378125 0 0 0.377778 368.614 285)">-</text><text font-family="Aptos,Aptos_MSFontService,sans-serif" font-weight="400" font-size="20" transform="matrix(0.378125 0 0 0.377778 371.214 285)">month</text><text font-family="Aptos,Aptos_MSFontService,sans-serif" font-weight="400" font-size="20" transform="matrix(0.378125 0 0 0.377778 365.621 294)">time lag</text><path d="M61.9869 269.746 61.9869 266.27 62.302 266.27 62.302 269.746ZM60.2556 266.9 62.1444 263.122 64.0333 266.9Z" transform="scale(1.00092 1)"/><path d="M46.498 269.746 46.498 266.27 46.8131 266.27 46.8131 269.746ZM44.7667 266.9 46.6556 263.122 48.5444 266.9Z" transform="scale(1.00092 1)"/><path d="M62.2053 269.922 46.6556 269.922" stroke="#000000" stroke-width="0.314815" stroke-miterlimit="8" fill="none" fill-rule="evenodd" transform="scale(1.00092 1)"/><path d="M54.2111 274.96 54.2111 269.922" stroke="#000000" stroke-width="0.314815" stroke-miterlimit="8" fill="none" fill-rule="evenodd" transform="scale(1.00092 1)"/><path d="M24.5556 272.756 83.1111 272.756 83.1111 295.8 24.5556 295.8Z" fill="#FFFFFF" transform="scale(1.00092 1)"/><text font-family="Aptos,Aptos_MSFontService,sans-serif" font-weight="400" font-size="20" transform="matrix(0.378125 0 0 0.377778 39.8479 282)">3</text><text font-family="Aptos,Aptos_MSFontService,sans-serif" font-weight="400" font-size="20" transform="matrix(0.378125 0 0 0.377778 43.8655 282)">-</text><text font-family="Aptos,Aptos_MSFontService,sans-serif" font-weight="400" font-size="20" transform="matrix(0.378125 0 0 0.377778 46.4651 282)">month</text><text font-family="Aptos,Aptos_MSFontService,sans-serif" font-weight="400" font-size="20" transform="matrix(0.378125 0 0 0.377778 40.8719 291)">time lag</text><path d="M27.5778 298.067 127.311 298.067 127.311 321.111 27.5778 321.111Z" fill="#FFFFFF" transform="scale(1.00092 1)"/><text font-family="Aptos,Aptos_MSFontService,sans-serif" font-weight="400" font-size="20" transform="matrix(0.378125 0 0 0.377778 36.1052 307)">COVID</text><text font-family="Aptos,Aptos_MSFontService,sans-serif" font-weight="400" font-size="20" transform="matrix(0.378125 0 0 0.377778 58.2698 307)">-</text><text font-family="Aptos,Aptos_MSFontService,sans-serif" font-weight="400" font-size="20" transform="matrix(0.378125 0 0 0.377778 60.3022 307)">19 </text><text font-family="Aptos,Aptos_MSFontService,sans-serif" font-weight="400" font-size="20" transform="matrix(0.378125 0 0 0.377778 70.1335 307)">items added to</text><text font-family="Aptos,Aptos_MSFontService,sans-serif" font-weight="400" font-size="20" transform="matrix(0.378125 0 0 0.377778 60.7148 316)">the survey</text><path d="M0.157408-2.43287e-07 0.157452 28.9284-0.157363 28.9284-0.157408 2.43287e-07ZM1.88893 28.2987 4.95773e-05 32.0765-1.88884 28.2987Z" transform="matrix(1.00092 0 0 -1 77.7047 298.599)"/><path d="M91.4222 272 141.667 272 141.667 295.044 91.4222 295.044Z" fill="#FFFFFF" transform="scale(1.00092 1)"/><text font-family="Aptos,Aptos_MSFontService,sans-serif" font-weight="400" font-size="20" transform="matrix(0.378125 0 0 0.377778 97.5952 281)"></text><text font-family="Aptos,Aptos_MSFontService,sans-serif" font-weight="400" font-size="20" transform="matrix(0.378125 0 0 0.377778 100.998 281)">Refresher</text><text font-family="Aptos,Aptos_MSFontService,sans-serif" font-weight="400" font-size="20" transform="matrix(0.378125 0 0 0.377778 133.517 281)"></text><text font-family="Aptos,Aptos_MSFontService,sans-serif" font-weight="400" font-size="20" transform="matrix(0.378125 0 0 0.377778 102.687 290)">samples</text><path d="M129.609 269.913 129.609 266.648 129.924 266.648 129.924 269.913ZM127.878 267.278 129.767 263.5 131.656 267.278Z" transform="scale(1.00092 1)"/><path d="M105.054 269.913 105.054 266.648 105.369 266.648 105.369 269.913ZM103.322 267.278 105.211 263.5 107.1 267.278Z" transform="scale(1.00092 1)"/><path d="M129.984 270.3 105.211 270.3" stroke="#000000" stroke-width="0.314815" stroke-miterlimit="8" fill="none" fill-rule="evenodd" transform="scale(1.00092 1)"/><path d="M116.922 273.927 116.922 270.3" stroke="#000000" stroke-width="0.314815" stroke-miterlimit="8" fill="none" fill-rule="evenodd" transform="scale(1.00092 1)"/><path d="M355.111 298.822 454.844 298.822 454.844 321.489 355.111 321.489Z" fill="#FFFFFF" transform="scale(1.00092 1)"/><text font-family="Aptos,Aptos_MSFontService,sans-serif" font-weight="400" font-size="20" transform="matrix(0.378125 0 0 0.377778 364.278 308)">COVID</text><text font-family="Aptos,Aptos_MSFontService,sans-serif" font-weight="400" font-size="20" transform="matrix(0.378125 0 0 0.377778 386.444 308)">-</text><text font-family="Aptos,Aptos_MSFontService,sans-serif" font-weight="400" font-size="20" transform="matrix(0.378125 0 0 0.377778 388.474 308)">19 </text><text font-family="Aptos,Aptos_MSFontService,sans-serif" font-weight="400" font-size="20" transform="matrix(0.378125 0 0 0.377778 398.306 308)">items removed</text><text font-family="Aptos,Aptos_MSFontService,sans-serif" font-weight="400" font-size="20" transform="matrix(0.378125 0 0 0.377778 380.246 317)">from the survey</text><path d="M0.157408-2.43287e-07 0.157452 28.9284-0.157363 28.9284-0.157408 2.43287e-07ZM1.88893 28.2987 4.95773e-05 32.0765-1.88884 28.2987Z" transform="matrix(1.00092 0 0 -1 405.539 298.976)"/><path d="M281.067 274.644 357 274.644 357 297.689 281.067 297.689Z" fill="#FFFFFF" transform="scale(1.00092 1)"/><text font-family="Aptos,Aptos_MSFontService,sans-serif" font-weight="400" font-size="20" transform="matrix(0.378125 0 0 0.377778 292.482 284)">Daily diary study</text><text font-family="Aptos,Aptos_MSFontService,sans-serif" font-weight="400" font-size="20" transform="matrix(0.378125 0 0 0.377778 287.282 293)">across </text><text font-family="Aptos,Aptos_MSFontService,sans-serif" font-weight="400" font-size="20" transform="matrix(0.378125 0 0 0.377778 311.104 293)">10 </text><text font-family="Aptos,Aptos_MSFontService,sans-serif" font-weight="400" font-size="20" transform="matrix(0.378125 0 0 0.377778 320.935 293)">workdays</text><path d="M0.157408-6.88572e-07 0.157443 8.1852-0.157372 8.1852-0.157408 6.88572e-07ZM1.88892 7.55556 4.95773e-05 11.3333-1.88885 7.55556Z" transform="matrix(1.00092 0 0 -1 319.327 276.344)"/><path d="M588.2 102.378 603.689 102.378 603.689 191.911 588.2 191.911Z" fill="#FFFFFF" transform="scale(1.00092 1)"/><text fill="#B02F2C" font-family="Aptos,Aptos_MSFontService,sans-serif" font-weight="400" font-size="23" transform="matrix(2.31535e-17 0.377778 -0.378125 2.31322e-17 593.581 124)">Sample size</text><text fill="#4CA2B9" font-family="Aptos,Aptos_MSFontService,sans-serif" font-weight="400" font-size="23" transform="matrix(-6.94604e-17 -0.377778 0.378125 -6.93966e-17 10.8439 174)">Incidence rate</text></g></svg>